# 3ds Max Wavefront OBJ Exporter v0.99 - (c)2007 guruware
# 파일 생성됨: 21.11.2022 21:18:45

mtllib packman_eyes.mtl

#
# object 오브젝트003
#

v 0.1035 0.2343 0.2819
v 0.0929 0.2388 0.2819
v 0.0737 0.0660 0.2820
v 0.0634 0.2263 0.2792
v 0.0758 0.2343 0.2819
v 0.0741 0.2389 0.2792
v 0.1052 0.2389 0.2792
v 0.0549 0.2067 0.2792
v 0.0663 0.2212 0.2819
v 0.0475 0.0739 0.2793
v 0.0538 0.0524 0.2821
v 0.0522 0.0808 0.2820
v 0.0933 -0.0148 0.2794
v 0.0864 -0.0113 0.2821
v 0.0860 -0.0148 0.2794
v 0.0494 0.1819 0.2792
v 0.0587 0.2009 0.2819
v 0.0494 0.0465 0.2794
v 0.0587 0.0267 0.2821
v 0.0475 0.1545 0.2793
v 0.0538 0.1752 0.2820
v 0.0549 0.0218 0.2794
v 0.0663 0.0063 0.2821
v 0.0933 0.2432 0.2792
v 0.0864 0.2388 0.2819
v 0.1052 -0.0105 0.2794
v 0.0929 -0.0113 0.2821
v 0.1318 0.1545 0.2793
v 0.1255 0.1752 0.2820
v 0.1272 0.1467 0.2820
v 0.0634 0.0021 0.2794
v 0.0758 -0.0068 0.2821
v 0.1318 0.1008 0.2793
v 0.1272 0.1135 0.2820
v 0.1272 0.1028 0.2820
v 0.1159 0.0021 0.2794
v 0.1035 -0.0068 0.2821
v 0.1299 0.1819 0.2792
v 0.1206 0.2009 0.2819
v 0.0741 -0.0105 0.2794
v 0.0475 0.1008 0.2793
v 0.0522 0.1028 0.2820
v 0.1244 0.0218 0.2794
v 0.1130 0.0063 0.2821
v 0.1244 0.2067 0.2792
v 0.1130 0.2212 0.2819
v 0.0860 0.2432 0.2792
v 0.1251 0.0439 0.2821
v 0.1206 0.0267 0.2821
v 0.1159 0.2263 0.2792
v 0.0521 0.1467 0.2820
v 0.0521 0.1248 0.2820
v 0.1272 0.0768 0.2820
v 0.1318 0.0739 0.2793
v 0.1272 0.1361 0.2820
v 0.0475 0.1276 0.2793
v 0.1318 0.1390 0.2793
v 0.1318 0.1163 0.2793
v 0.0821 0.0655 0.2793
v 0.0741 -0.0105 0.2719
v 0.0860 -0.0148 0.2719
v 0.1318 0.1545 0.2718
v 0.0475 0.0739 0.2718
v 0.0475 0.1276 0.2718
v 0.0741 0.2389 0.2717
v 0.0475 0.1008 0.2718
v 0.1318 0.1163 0.2718
v 0.0634 0.2263 0.2717
v 0.0549 0.2067 0.2717
v 0.0494 0.1819 0.2717
v 0.1299 0.0465 0.2794
v 0.0821 0.0655 0.2718
v 0.0475 0.1545 0.2718
v 0.1052 -0.0105 0.2719
v 0.1299 0.1819 0.2717
v 0.1159 0.0021 0.2719
v 0.1318 0.0739 0.2718
v 0.1244 0.2067 0.2717
v 0.1244 0.0218 0.2719
v 0.1159 0.2263 0.2717
v 0.1299 0.0465 0.2719
v 0.1052 0.2389 0.2717
v 0.0494 0.0465 0.2719
v 0.0933 0.2432 0.2717
v 0.0549 0.0218 0.2719
v 0.1318 0.1390 0.2718
v 0.0933 -0.0148 0.2719
v 0.0634 0.0021 0.2719
v 0.0860 0.2432 0.2717
v 0.1318 0.1008 0.2718
v -0.1035 0.2343 0.2819
v -0.0737 0.0660 0.2820
v -0.0929 0.2388 0.2819
v -0.0758 0.2343 0.2819
v -0.0634 0.2263 0.2792
v -0.0741 0.2389 0.2792
v -0.1052 0.2389 0.2792
v -0.0933 0.2432 0.2792
v -0.0663 0.2212 0.2819
v -0.0549 0.2067 0.2792
v -0.0475 0.0739 0.2793
v -0.0538 0.0524 0.2821
v -0.0494 0.0465 0.2794
v -0.0864 -0.0113 0.282
v -0.0933 -0.0148 0.279
v -0.0860 -0.0148 0.279
v -0.0587 0.2009 0.2819
v -0.0494 0.1819 0.2792
v -0.0587 0.0267 0.2821
v -0.0549 0.0218 0.2794
v -0.0538 0.1752 0.2820
v -0.0475 0.1545 0.2793
v -0.0663 0.0063 0.2821
v -0.0634 0.0021 0.2794
v -0.0864 0.2388 0.2819
v -0.0860 0.2432 0.2792
v -0.0929 -0.0113 0.282
v -0.1052 -0.0105 0.279
v -0.1318 0.1545 0.2793
v -0.1255 0.1752 0.2820
v -0.1299 0.1819 0.2792
v -0.0758 -0.0068 0.282
v -0.0741 -0.0105 0.279
v -0.1318 0.1008 0.2793
v -0.1272 0.1135 0.2820
v -0.1318 0.1163 0.2793
v -0.1035 -0.0068 0.282
v -0.1159 0.0021 0.2794
v -0.1206 0.2009 0.2819
v -0.1244 0.2067 0.2792
v -0.0475 0.1008 0.2793
v -0.0522 0.0808 0.2820
v -0.1130 0.0063 0.2821
v -0.1244 0.0218 0.2794
v -0.1130 0.2212 0.2819
v -0.1159 0.2263 0.2792
v -0.1251 0.0439 0.2821
v -0.1299 0.0465 0.2794
v -0.1206 0.0267 0.2821
v -0.0521 0.1467 0.2820
v -0.0521 0.1248 0.2820
v -0.1272 0.0768 0.2820
v -0.1272 0.1028 0.2820
v -0.1272 0.1467 0.2820
v -0.1318 0.0739 0.2793
v -0.1272 0.1361 0.2820
v -0.0475 0.1276 0.2793
v -0.0522 0.1028 0.2820
v -0.1318 0.1390 0.2793
v -0.0821 0.0655 0.2793
v -0.0741 -0.0105 0.271
v -0.1318 0.1545 0.2718
v -0.0475 0.0739 0.2718
v -0.0475 0.1276 0.2718
v -0.0741 0.2389 0.2717
v -0.0475 0.1008 0.2718
v -0.1318 0.1163 0.2718
v -0.0634 0.2263 0.2717
v -0.0549 0.2067 0.2717
v -0.0494 0.1819 0.2717
v -0.0821 0.0655 0.2718
v -0.0475 0.1545 0.2718
v -0.1052 -0.0105 0.271
v -0.1299 0.1819 0.2717
v -0.1159 0.0021 0.2719
v -0.1244 0.2067 0.2717
v -0.1244 0.0218 0.2719
v -0.1159 0.2263 0.2717
v -0.1299 0.0465 0.2719
v -0.1052 0.2389 0.2717
v -0.0494 0.0465 0.2719
v -0.0933 0.2432 0.2717
v -0.0549 0.0218 0.2719
v -0.1318 0.1390 0.2718
v -0.0933 -0.0148 0.271
v -0.0634 0.0021 0.2719
v -0.1318 0.1008 0.2718
v -0.0860 -0.0148 0.271
v -0.0860 0.2432 0.2717
v -0.1318 0.0739 0.2718
# 180 vertices

vn 0.0000 0.0000 1.0000
vn -0.4053 0.3448 0.8467
vn 0.1886 0.4428 0.8766
vn -0.4582 0.1986 0.8664
vn -0.4709 -0.0277 0.8817
vn -0.0000 -0.6043 0.7968
vn -0.4636 0.1024 0.8801
vn -0.4356 -0.0826 0.8963
vn -0.4820 0.0331 0.8755
vn -0.4241 -0.1577 0.8918
vn -0.0000 0.5187 0.8549
vn 0.2103 -0.5755 0.7903
vn 0.4672 0.0275 0.8837
vn -0.3948 -0.2882 0.8724
vn 0.5024 0.0000 0.8646
vn 0.4474 -0.3806 0.8093
vn 0.4252 0.0806 0.9015
vn -0.2155 -0.5061 0.8351
vn -0.5024 -0.0000 0.8646
vn 0.4854 -0.2104 0.8486
vn 0.4052 0.1507 0.9017
vn -0.1820 0.4980 0.8479
vn 0.4631 -0.1200 0.8781
vn 0.3642 0.2659 0.8925
vn 0.1004 -0.5905 0.8008
vn 0.2727 0.6330 0.7245
vn -0.3432 -0.9393 0.0000
vn 1.0000 0.0000 0.0000
vn -1.0000 0.0000 0.0000
vn -0.3432 0.9393 0.0000
vn -0.7617 0.6479 0.0000
vn -0.9175 0.3977 0.0000
vn -0.9765 0.2156 0.0000
vn 0.3689 0.9295 0.0000
vn -0.9977 0.0685 0.0000
vn 0.3432 -0.9393 0.0000
vn 0.9977 0.0685 0.0000
vn 0.7617 -0.6479 0.0000
vn 0.1676 -0.9859 0.0000
vn 0.9765 0.2156 0.0000
vn 0.9175 -0.3977 0.0000
vn 0.9175 0.3977 0.0000
vn 0.9765 -0.2156 0.0000
vn 0.7617 0.6479 0.0000
vn -0.9977 -0.0685 0.0000
vn 0.3432 0.9393 0.0000
vn -0.9765 -0.2156 0.0000
vn 0.0000 -1.0000 0.0000
vn -0.9175 -0.3977 0.0000
vn 0.0000 1.0000 0.0000
vn -0.7617 -0.6479 0.0000
vn 0.0000 -0.0000 -1.0000
vn 0.4053 0.3448 0.8467
vn 0.4582 0.1986 0.8664
vn 0.4866 -0.0334 0.8730
vn 0.4636 0.1024 0.8801
vn 0.4777 -0.1055 0.8722
vn 0.4820 0.0331 0.8755
vn -0.2103 -0.5755 0.7903
vn 0.4475 -0.3806 0.8093
vn -0.4474 -0.3806 0.8093
vn -0.4854 -0.2104 0.8486
vn 0.1820 0.4980 0.8479
vn -0.5313 -0.1173 0.8390
vn -0.1528 -0.7597 0.6321
vn -0.2727 0.6330 0.7245
vn -0.3689 0.9295 0.0000
vn -0.1676 -0.9859 0.0000
vn 0.9977 -0.0685 0.0000
vn -0.3643 0.2659 0.8925
vn -0.4052 0.1507 0.9017
vn -0.4866 -0.0334 0.8730
vn -0.0000 -0.6043 0.7967
vn -0.4252 0.0806 0.9015
vn -0.4777 -0.1055 0.8722
vn -0.4672 0.0275 0.8837
vn 0.2155 -0.5061 0.8351
vn -0.4475 -0.3806 0.8093
vn 0.3948 -0.2882 0.8724
vn 0.4241 -0.1577 0.8918
vn -0.1886 0.4428 0.8766
vn 0.5313 -0.1173 0.8390
vn 0.1528 -0.7597 0.6321
vn 0.1983 0.4995 0.8433
vn 0.3643 0.2659 0.8925
vn 0.4709 -0.0277 0.8817
vn 0.4356 -0.0826 0.8963
vn -0.4631 -0.1200 0.8781
vn -0.3642 0.2659 0.8925
vn -0.1004 -0.5905 0.8008
vn -0.1983 0.4995 0.8433
# 91 vertex normals

vt 0.3594 0.3678 0.0000
vt 0.3830 0.3678 0.0000
vt 0.3830 0.3913 0.0000
vt 0.3594 0.3913 0.0000
vt 0.3760 0.3688 0.0000
vt 0.3624 0.3717 0.0000
vt 0.3781 0.3700 0.0000
vt 0.3814 0.3737 0.0000
vt 0.3824 0.3759 0.0000
vt 0.3594 0.3783 0.0000
vt 0.3687 0.3911 0.0000
vt 0.3712 0.3913 0.0000
vt 0.3736 0.3911 0.0000
vt 0.3760 0.3903 0.0000
vt 0.3781 0.3891 0.0000
vt 0.3799 0.3874 0.0000
vt 0.3814 0.3855 0.0000
vt 0.3824 0.3832 0.0000
vt 0.3624 0.3874 0.0000
vt 0.3829 0.3783 0.0000
vt 0.3594 0.3808 0.0000
vt 0.3829 0.3808 0.0000
vt 0.3664 0.3903 0.0000
vt 0.3642 0.3891 0.0000
vt 0.3599 0.3832 0.0000
vt 0.3609 0.3855 0.0000
vt 0.3599 0.3759 0.0000
vt 0.3799 0.3717 0.0000
vt 0.3736 0.3680 0.0000
vt 0.3712 0.3678 0.0000
vt 0.3687 0.3680 0.0000
vt 0.3664 0.3688 0.0000
vt 0.3642 0.3700 0.0000
vt 0.3609 0.3737 0.0000
# 34 texture coords

o 오브젝트003
g 오브젝트003
usemtl default
s off
f 1/1/1 2/2/1 3/3/1 
f 4/2/2 5/4/2 6/1/2 
f 7/1/3 2/3/3 1/4/3 
f 8/2/4 9/4/4 4/1/4 
f 10/1/5 11/3/5 12/4/5 
f 13/2/6 14/4/6 15/1/6 
f 16/2/7 17/4/7 8/1/7 
f 18/1/8 19/3/8 11/4/8 
f 20/2/9 21/4/9 16/1/9 
f 22/1/10 23/3/10 19/4/10 
f 24/1/11 25/3/11 2/4/11 
f 26/2/12 27/4/12 13/1/12 
f 28/1/13 29/3/13 30/4/13 
f 31/1/14 32/3/14 23/4/14 
f 33/1/15 34/3/15 35/4/15 
f 36/2/16 37/4/16 26/1/16 
f 38/1/17 39/3/17 29/4/17 
f 40/1/18 14/3/18 32/4/18 
f 41/1/19 12/3/19 42/4/19 
f 43/2/20 44/4/20 36/1/20 
f 45/1/21 46/3/21 39/4/21 
f 6/2/22 25/4/22 47/1/22 
f 43/1/23 48/3/23 49/4/23 
f 50/1/24 1/3/24 46/4/24 
f 5/1/1 9/2/1 3/3/1 
f 46/1/1 1/2/1 3/3/1 
f 49/1/1 48/2/1 3/3/1 
f 25/1/1 5/2/1 3/3/1 
f 39/1/1 46/2/1 3/3/1 
f 44/1/1 49/2/1 3/3/1 
f 51/1/1 52/2/1 3/3/1 
f 32/1/1 14/2/1 3/3/1 
f 29/1/1 39/2/1 3/3/1 
f 37/1/1 44/2/1 3/3/1 
f 53/1/1 35/2/1 3/3/1 
f 23/1/1 32/2/1 3/3/1 
f 30/1/1 29/2/1 3/3/1 
f 27/1/1 37/2/1 3/3/1 
f 2/1/1 25/2/1 3/3/1 
f 19/1/1 23/2/1 3/3/1 
f 21/1/1 51/2/1 3/3/1 
f 11/1/1 19/2/1 3/3/1 
f 17/1/1 21/2/1 3/3/1 
f 14/1/1 27/2/1 3/3/1 
f 9/1/1 17/2/1 3/3/1 
f 12/1/1 11/2/1 3/3/1 
f 33/2/15 53/4/15 54/1/15 
f 3/1/1 55/2/1 30/3/1 
f 56/2/19 51/4/19 20/1/19 
f 41/2/19 52/4/19 56/1/19 
f 3/1/1 52/2/1 42/3/1 
f 42/1/1 12/2/1 3/3/1 
f 3/1/1 35/2/1 34/3/1 
f 57/1/15 30/3/15 55/4/15 
f 34/1/1 55/2/1 3/3/1 
f 55/2/15 58/4/15 57/1/15 
f 53/1/25 59/3/25 54/4/25 
f 48/2/26 59/4/26 3/1/26 
f 15/1/27 60/3/27 61/4/27 
f 57/2/28 62/4/28 28/1/28 
f 41/2/29 63/4/29 10/1/29 
f 20/2/29 64/4/29 56/1/29 
f 47/2/30 65/4/30 6/1/30 
f 56/2/29 66/4/29 41/1/29 
f 33/2/28 67/4/28 58/1/28 
f 6/2/31 68/4/31 4/1/31 
f 4/2/32 69/4/32 8/1/32 
f 8/2/33 70/4/33 16/1/33 
f 71/2/34 72/4/34 59/1/34 
f 16/2/35 73/4/35 20/1/35 
f 13/2/36 74/4/36 26/1/36 
f 28/2/37 75/4/37 38/1/37 
f 26/2/38 76/4/38 36/1/38 
f 54/1/39 72/3/39 77/4/39 
f 38/2/40 78/4/40 45/1/40 
f 36/2/41 79/4/41 43/1/41 
f 45/2/42 80/4/42 50/1/42 
f 43/2/43 81/4/43 71/1/43 
f 50/2/44 82/4/44 7/1/44 
f 10/2/45 83/4/45 18/1/45 
f 7/2/46 84/4/46 24/1/46 
f 18/2/47 85/4/47 22/1/47 
f 58/2/28 86/4/28 57/1/28 
f 15/2/48 87/4/48 13/1/48 
f 22/2/49 88/4/49 31/1/49 
f 47/1/50 84/3/50 89/4/50 
f 31/2/51 60/4/51 40/1/51 
f 54/2/28 90/4/28 33/1/28 
f 68/5/52 78/6/52 69/7/52 
f 91/1/1 92/3/1 93/2/1 
f 94/4/53 95/2/53 96/1/53 
f 97/1/22 93/3/22 98/2/22 
f 99/4/54 100/2/54 95/1/54 
f 101/1/55 102/3/55 103/2/55 
f 104/4/6 105/2/6 106/1/6 
f 107/4/56 108/2/56 100/1/56 
f 103/1/57 109/3/57 110/2/57 
f 111/4/58 112/2/58 108/1/58 
f 110/1/20 113/3/20 114/2/20 
f 98/1/11 115/3/11 116/2/11 
f 117/4/59 118/2/59 105/1/59 
f 119/1/9 120/3/9 121/2/9 
f 114/1/60 122/3/60 123/2/60 
f 124/1/19 125/3/19 126/2/19 
f 127/4/61 128/2/61 118/1/61 
f 121/1/7 129/3/7 130/2/7 
f 123/1/12 104/3/12 106/2/12 
f 131/1/15 132/3/15 101/2/15 
f 133/4/62 134/2/62 128/1/62 
f 130/1/4 135/3/4 136/2/4 
f 115/4/63 96/2/63 116/1/63 
f 134/1/64 137/3/64 138/2/64 
f 136/1/2 91/3/2 97/2/2 
f 94/1/1 92/3/1 99/2/1 
f 135/1/1 92/3/1 91/2/1 
f 139/1/1 92/3/1 137/2/1 
f 115/1/1 92/3/1 94/2/1 
f 129/1/1 92/3/1 135/2/1 
f 133/1/1 92/3/1 139/2/1 
f 140/1/1 92/3/1 141/2/1 
f 122/1/1 92/3/1 104/2/1 
f 120/1/1 92/3/1 129/2/1 
f 127/1/1 92/3/1 133/2/1 
f 142/1/1 92/3/1 143/2/1 
f 113/1/1 92/3/1 122/2/1 
f 144/1/1 92/3/1 120/2/1 
f 117/1/1 92/3/1 127/2/1 
f 93/1/1 92/3/1 115/2/1 
f 109/1/1 92/3/1 113/2/1 
f 111/1/1 92/3/1 140/2/1 
f 102/1/1 92/3/1 109/2/1 
f 107/1/1 92/3/1 111/2/1 
f 104/1/1 92/3/1 117/2/1 
f 99/1/1 92/3/1 107/2/1 
f 132/1/1 92/3/1 102/2/1 
f 142/4/19 124/2/19 145/1/19 
f 92/1/1 144/3/1 146/2/1 
f 140/4/15 147/2/15 112/1/15 
f 141/4/15 131/2/15 147/1/15 
f 92/1/1 148/3/1 141/2/1 
f 148/1/1 92/3/1 132/2/1 
f 92/1/1 125/3/1 143/2/1 
f 149/1/19 144/3/19 119/2/19 
f 125/1/1 92/3/1 146/2/1 
f 126/4/19 146/2/19 149/1/19 
f 142/1/65 150/3/65 92/2/65 
f 150/4/66 137/2/66 92/1/66 
f 106/1/36 151/3/36 123/2/36 
f 152/4/29 149/2/29 119/1/29 
f 153/4/28 131/2/28 101/1/28 
f 154/4/28 112/2/28 147/1/28 
f 155/4/46 116/2/46 96/1/46 
f 156/4/28 147/2/28 131/1/28 
f 157/4/29 124/2/29 126/1/29 
f 158/4/44 96/2/44 95/1/44 
f 159/4/42 95/2/42 100/1/42 
f 160/4/40 100/2/40 108/1/40 
f 161/4/67 138/2/67 150/1/67 
f 162/4/37 108/2/37 112/1/37 
f 163/4/27 105/2/27 118/1/27 
f 164/4/35 119/2/35 121/1/35 
f 165/4/51 118/2/51 128/1/51 
f 145/1/68 161/3/68 150/2/68 
f 166/4/33 121/2/33 130/1/33 
f 167/4/49 128/2/49 134/1/49 
f 168/4/32 130/2/32 136/1/32 
f 169/4/47 134/2/47 138/1/47 
f 170/4/31 136/2/31 97/1/31 
f 171/4/69 101/2/69 103/1/69 
f 172/4/30 97/2/30 98/1/30 
f 173/4/43 103/2/43 110/1/43 
f 174/4/29 126/2/29 149/1/29 
f 175/4/48 106/2/48 105/1/48 
f 176/4/41 110/2/41 114/1/41 
f 116/1/50 172/3/50 98/2/50 
f 151/4/38 114/2/38 123/1/38 
f 177/4/29 145/2/29 124/1/29 
f 162/8/52 154/9/52 174/10/52 
f 4/2/70 9/3/70 5/4/70 
f 7/1/63 24/2/63 2/3/63 
f 8/2/71 17/3/71 9/4/71 
f 10/1/72 18/2/72 11/3/72 
f 13/2/73 27/3/73 14/4/73 
f 16/2/74 21/3/74 17/4/74 
f 18/1/75 22/2/75 19/3/75 
f 20/2/76 51/3/76 21/4/76 
f 22/1/62 31/2/62 23/3/62 
f 24/1/11 47/2/11 25/3/11 
f 26/2/77 37/3/77 27/4/77 
f 28/1/58 38/2/58 29/3/58 
f 31/1/78 40/2/78 32/3/78 
f 33/1/15 58/2/15 34/3/15 
f 36/2/79 44/3/79 37/4/79 
f 38/1/56 45/2/56 39/3/56 
f 40/1/59 15/2/59 14/3/59 
f 41/1/19 10/2/19 12/3/19 
f 43/2/80 49/3/80 44/4/80 
f 45/1/54 50/2/54 46/3/54 
f 6/2/81 5/3/81 25/4/81 
f 43/1/82 71/2/82 48/3/82 
f 50/1/53 7/2/53 1/3/53 
f 33/2/15 35/3/15 53/4/15 
f 56/2/19 52/3/19 51/4/19 
f 41/2/19 42/3/19 52/4/19 
f 57/1/15 28/2/15 30/3/15 
f 55/2/15 34/3/15 58/4/15 
f 53/1/83 3/2/83 59/3/83 
f 48/2/84 71/3/84 59/4/84 
f 15/1/27 40/2/27 60/3/27 
f 57/2/28 86/3/28 62/4/28 
f 41/2/29 66/3/29 63/4/29 
f 20/2/29 73/3/29 64/4/29 
f 47/2/30 89/3/30 65/4/30 
f 56/2/29 64/3/29 66/4/29 
f 33/2/28 90/3/28 67/4/28 
f 6/2/31 65/3/31 68/4/31 
f 4/2/32 68/3/32 69/4/32 
f 8/2/33 69/3/33 70/4/33 
f 71/2/34 81/3/34 72/4/34 
f 16/2/35 70/3/35 73/4/35 
f 13/2/36 87/3/36 74/4/36 
f 28/2/37 62/3/37 75/4/37 
f 26/2/38 74/3/38 76/4/38 
f 54/1/39 59/2/39 72/3/39 
f 38/2/40 75/3/40 78/4/40 
f 36/2/41 76/3/41 79/4/41 
f 45/2/42 78/3/42 80/4/42 
f 43/2/43 79/3/43 81/4/43 
f 50/2/44 80/3/44 82/4/44 
f 10/2/45 63/3/45 83/4/45 
f 7/2/46 82/3/46 84/4/46 
f 18/2/47 83/3/47 85/4/47 
f 58/2/28 67/3/28 86/4/28 
f 15/2/48 61/3/48 87/4/48 
f 22/2/49 85/3/49 88/4/49 
f 47/1/50 24/2/50 84/3/50 
f 31/2/51 88/3/51 60/4/51 
f 54/2/28 77/3/28 90/4/28 
f 76/11/52 74/12/52 87/13/52 
f 87/13/52 61/14/52 60/15/52 
f 60/15/52 88/16/52 87/13/52 
f 85/17/52 83/18/52 72/19/52 
f 66/20/52 64/9/52 67/21/52 
f 83/18/52 63/22/52 72/19/52 
f 87/13/52 88/16/52 76/11/52 
f 79/23/52 76/11/52 85/17/52 
f 72/19/52 81/24/52 79/23/52 
f 90/25/52 77/26/52 72/19/52 
f 62/27/52 86/10/52 73/8/52 
f 67/21/52 90/25/52 66/20/52 
f 72/19/52 79/23/52 85/17/52 
f 88/16/52 85/17/52 76/11/52 
f 64/9/52 73/8/52 86/10/52 
f 70/28/52 69/7/52 78/6/52 
f 68/5/52 65/29/52 89/30/52 
f 89/30/52 84/31/52 68/5/52 
f 82/32/52 80/33/52 68/5/52 
f 78/6/52 75/34/52 70/28/52 
f 86/10/52 67/21/52 64/9/52 
f 72/19/52 63/22/52 66/20/52 
f 73/8/52 70/28/52 62/27/52 
f 68/5/52 84/31/52 82/32/52 
f 80/33/52 78/6/52 68/5/52 
f 90/25/52 72/19/52 66/20/52 
f 70/28/52 75/34/52 62/27/52 
f 94/4/85 99/3/85 95/2/85 
f 97/1/81 91/4/81 93/3/81 
f 99/4/21 107/3/21 100/2/21 
f 101/1/86 132/4/86 102/3/86 
f 104/4/6 117/3/6 105/2/6 
f 107/4/17 111/3/17 108/2/17 
f 103/1/87 102/4/87 109/3/87 
f 111/4/13 140/3/13 112/2/13 
f 110/1/80 109/4/80 113/3/80 
f 98/1/11 93/4/11 115/3/11 
f 117/4/18 127/3/18 118/2/18 
f 119/1/76 144/4/76 120/3/76 
f 114/1/79 113/4/79 122/3/79 
f 124/1/19 143/4/19 125/3/19 
f 127/4/14 133/3/14 128/2/14 
f 121/1/74 120/4/74 129/3/74 
f 123/1/77 122/4/77 104/3/77 
f 131/1/15 148/4/15 132/3/15 
f 133/4/10 139/3/10 134/2/10 
f 130/1/71 129/4/71 135/3/71 
f 115/4/3 94/3/3 96/2/3 
f 134/1/88 139/4/88 137/3/88 
f 136/1/89 135/4/89 91/3/89 
f 142/4/19 143/3/19 124/2/19 
f 140/4/15 141/3/15 147/2/15 
f 141/4/15 148/3/15 131/2/15 
f 149/1/19 146/4/19 144/3/19 
f 126/4/19 125/3/19 146/2/19 
f 142/1/90 145/4/90 150/3/90 
f 150/4/91 138/3/91 137/2/91 
f 106/1/36 178/4/36 151/3/36 
f 152/4/29 174/3/29 149/2/29 
f 153/4/28 156/3/28 131/2/28 
f 154/4/28 162/3/28 112/2/28 
f 155/4/46 179/3/46 116/2/46 
f 156/4/28 154/3/28 147/2/28 
f 157/4/29 177/3/29 124/2/29 
f 158/4/44 155/3/44 96/2/44 
f 159/4/42 158/3/42 95/2/42 
f 160/4/40 159/3/40 100/2/40 
f 161/4/67 169/3/67 138/2/67 
f 162/4/37 160/3/37 108/2/37 
f 163/4/27 175/3/27 105/2/27 
f 164/4/35 152/3/35 119/2/35 
f 165/4/51 163/3/51 118/2/51 
f 145/1/68 180/4/68 161/3/68 
f 166/4/33 164/3/33 121/2/33 
f 167/4/49 165/3/49 128/2/49 
f 168/4/32 166/3/32 130/2/32 
f 169/4/47 167/3/47 134/2/47 
f 170/4/31 168/3/31 136/2/31 
f 171/4/69 153/3/69 101/2/69 
f 172/4/30 170/3/30 97/2/30 
f 173/4/43 171/3/43 103/2/43 
f 174/4/29 157/3/29 126/2/29 
f 175/4/48 178/3/48 106/2/48 
f 176/4/41 173/3/41 110/2/41 
f 116/1/50 179/4/50 172/3/50 
f 151/4/38 176/3/38 114/2/38 
f 177/4/29 180/3/29 145/2/29 
f 175/13/52 163/12/52 165/11/52 
f 165/11/52 167/23/52 173/17/52 
f 161/19/52 180/26/52 177/25/52 
f 167/23/52 169/24/52 161/19/52 
f 178/14/52 175/13/52 165/11/52 
f 176/16/52 151/15/52 178/14/52 
f 171/18/52 173/17/52 161/19/52 
f 156/20/52 153/22/52 161/19/52 
f 160/28/52 162/8/52 152/27/52 
f 154/9/52 156/20/52 157/21/52 
f 173/17/52 167/23/52 161/19/52 
f 178/14/52 165/11/52 176/16/52 
f 161/19/52 177/25/52 156/20/52 
f 157/21/52 174/10/52 154/9/52 
f 152/27/52 164/34/52 160/28/52 
f 166/6/52 168/33/52 158/5/52 
f 170/32/52 172/31/52 158/5/52 
f 179/30/52 155/29/52 158/5/52 
f 158/5/52 159/7/52 166/6/52 
f 162/8/52 174/10/52 152/27/52 
f 176/16/52 165/11/52 173/17/52 
f 177/25/52 157/21/52 156/20/52 
f 164/34/52 166/6/52 160/28/52 
f 172/31/52 179/30/52 158/5/52 
f 159/7/52 160/28/52 166/6/52 
f 171/18/52 161/19/52 153/22/52 
f 168/33/52 170/32/52 158/5/52 
# 0 polygons - 352 triangles

